<svg xmlns="http://www.w3.org/2000/svg" xmlns:xlink="http://www.w3.org/1999/xlink" width="280.494" height="281.035" viewBox="0 0 280.494 281.035">
  <defs>
    <linearGradient id="linear-gradient" x1="1.125" y1="1.299" x2="0.238" y2="0.189" gradientUnits="objectBoundingBox">
      <stop offset="0" stop-color="#b37cff"/>
      <stop offset="1" stop-color="#f895e7"/>
    </linearGradient>
    <linearGradient id="linear-gradient-2" x1="-3.987" y1="0.008" x2="-3.08" y2="0.008" xlink:href="#linear-gradient"/>
    <linearGradient id="linear-gradient-3" x1="-3.417" y1="-0.216" x2="-2.756" y2="-0.216" gradientUnits="objectBoundingBox">
      <stop offset="0" stop-color="#a737d5"/>
      <stop offset="1" stop-color="#ef497a"/>
    </linearGradient>
    <linearGradient id="linear-gradient-4" x1="4.7" y1="0.724" x2="5.469" y2="0.724" xlink:href="#linear-gradient-3"/>
    <linearGradient id="linear-gradient-5" x1="0.933" y1="-0.003" x2="-0.785" y2="1.996" gradientUnits="objectBoundingBox">
      <stop offset="0" stop-color="#2b3582"/>
      <stop offset="1" stop-color="#150e42"/>
    </linearGradient>
    <linearGradient id="linear-gradient-6" x1="0.591" y1="0.073" x2="0.23" y2="1.683" gradientUnits="objectBoundingBox">
      <stop offset="0" stop-color="#53d8ff"/>
      <stop offset="1" stop-color="#3840f7"/>
    </linearGradient>
    <linearGradient id="linear-gradient-7" x1="0.001" y1="-23.78" x2="0.314" y2="-8.56" xlink:href="#linear-gradient-6"/>
    <linearGradient id="linear-gradient-8" x1="0.683" y1="-0.615" x2="0.309" y2="1.663" xlink:href="#linear-gradient-6"/>
    <linearGradient id="linear-gradient-9" x1="-35.085" y1="0.976" x2="-33.478" y2="-0.095" gradientUnits="objectBoundingBox">
      <stop offset="0" stop-color="#f9b776"/>
      <stop offset="1" stop-color="#f47960"/>
    </linearGradient>
    <linearGradient id="linear-gradient-10" x1="-39.035" y1="3.694" x2="-33.05" y2="-8.994" xlink:href="#linear-gradient-9"/>
    <linearGradient id="linear-gradient-11" x1="-51.877" y1="0.5" x2="-50.877" y2="0.5" xlink:href="#linear-gradient-9"/>
    <linearGradient id="linear-gradient-12" x1="-45.415" y1="0.888" x2="-43.127" y2="-3.733" gradientUnits="objectBoundingBox">
      <stop offset="0" stop-color="#cb236d"/>
      <stop offset="1" stop-color="#4c246d"/>
    </linearGradient>
    <linearGradient id="linear-gradient-13" x1="-55.579" y1="1.997" x2="-52.698" y2="-2.348" xlink:href="#linear-gradient-12"/>
    <linearGradient id="linear-gradient-14" x1="3.654" y1="0.128" x2="2.022" y2="1.868" xlink:href="#linear-gradient-12"/>
    <linearGradient id="linear-gradient-15" x1="-70.374" y1="0.5" x2="-69.374" y2="0.5" xlink:href="#linear-gradient-9"/>
    <linearGradient id="linear-gradient-16" x1="-24.579" y1="0.087" x2="-26.508" y2="1.802" gradientUnits="objectBoundingBox">
      <stop offset="0" stop-color="#fdf53f"/>
      <stop offset="1" stop-color="#d93c65"/>
    </linearGradient>
    <linearGradient id="linear-gradient-17" x1="-15.435" y1="-0.089" x2="-17.643" y2="1.396" xlink:href="#linear-gradient-9"/>
    <linearGradient id="linear-gradient-18" x1="-52.32" y1="-0.515" x2="-60.019" y2="5.655" xlink:href="#linear-gradient-9"/>
    <linearGradient id="linear-gradient-19" x1="-52.504" y1="1.075" x2="-53.999" y2="-0.514" xlink:href="#linear-gradient-9"/>
    <linearGradient id="linear-gradient-20" x1="-10.577" y1="0.069" x2="-11.012" y2="0.617" xlink:href="#linear-gradient-5"/>
    <linearGradient id="linear-gradient-21" x1="0.931" y1="-1.137" x2="0.163" y2="1.779" xlink:href="#linear-gradient-16"/>
    <linearGradient id="linear-gradient-22" x1="0.748" y1="-0.102" x2="-0.283" y2="2.395" xlink:href="#linear-gradient-16"/>
    <linearGradient id="linear-gradient-23" x1="1.681" y1="-5.847" x2="-0.099" y2="3.847" xlink:href="#linear-gradient-16"/>
    <linearGradient id="linear-gradient-24" x1="0.649" y1="16.288" x2="1.598" y2="16.288" xlink:href="#linear-gradient"/>
    <linearGradient id="linear-gradient-25" x1="46.18" y1="178.172" x2="47.764" y2="178.172" xlink:href="#linear-gradient"/>
    <linearGradient id="linear-gradient-26" x1="32.09" y1="233.486" x2="32.825" y2="233.486" xlink:href="#linear-gradient"/>
    <linearGradient id="linear-gradient-27" x1="0.711" y1="17.366" x2="1.735" y2="17.366" xlink:href="#linear-gradient"/>
    <linearGradient id="linear-gradient-28" x1="-9.024" y1="192.409" x2="-7.509" y2="192.409" xlink:href="#linear-gradient"/>
    <linearGradient id="linear-gradient-29" x1="0.627" y1="0.057" x2="0.255" y2="1.352" xlink:href="#linear-gradient-16"/>
    <linearGradient id="linear-gradient-30" x1="-38.698" y1="284.593" x2="-37.98" y2="284.593" xlink:href="#linear-gradient"/>
    <linearGradient id="linear-gradient-31" x1="-1.296" y1="31.675" x2="-0.482" y2="31.675" xlink:href="#linear-gradient"/>
    <linearGradient id="linear-gradient-32" x1="-2.275" y1="25.252" x2="-0.891" y2="25.252" xlink:href="#linear-gradient"/>
    <linearGradient id="linear-gradient-33" x1="-61.709" y1="242.753" x2="-59.952" y2="242.753" xlink:href="#linear-gradient"/>
    <linearGradient id="linear-gradient-34" x1="0.739" y1="-0.264" x2="0.183" y2="1.514" xlink:href="#linear-gradient-16"/>
  </defs>
  <g id="Illustration" transform="translate(0)">
    <g id="Group_26" data-name="Group 26">
      <path id="Path_1" data-name="Path 1" d="M698.616,671.613a100.671,100.671,0,0,1-15.4,12.993C633,720.725,573.572,710.2,560.942,707.625c-18.65-3.8-54.7-11.136-80.764-41.858-39.432-46.48-33.292-119.709-2.706-168.048,5.595-8.842,35.148-57.918,95.214-65.788,36.352-4.763,78.726,4.843,109.411,30.613C746.512,516.635,741.925,625.91,698.616,671.613Z" transform="translate(-452.268 -430.003)" opacity="0.3" fill="url(#linear-gradient)"/>
      <g id="Group_5" data-name="Group 5" transform="translate(124.581)">
        <g id="Group_3" data-name="Group 3" transform="translate(13.605 112.036)">
          <path id="Path_2" data-name="Path 2" d="M1867.18,1702.115s56.144-141.832,139.549-157.326a2.336,2.336,0,0,1,2.756,2.412C2008.641,1564.7,1997.958,1657.286,1867.18,1702.115Z" transform="translate(-1867.18 -1544.749)" opacity="0.81" fill="url(#linear-gradient-2)"/>
          <path id="Path_3" data-name="Path 3" d="M2010.8,1766.784c-4.259,6.078-8.722,12-13.246,17.87-1.13,1.469-2.284,2.919-3.425,4.379s-2.275,2.926-3.445,4.364l-3.5,4.322c-1.171,1.436-2.318,2.893-3.517,4.306-2.383,2.839-4.744,5.7-7.145,8.521l-7.281,8.406c-4.94,5.528-9.876,11.061-14.967,16.452l-3.789,4.071c-1.248,1.372-2.571,2.671-3.853,4.01l-7.733,8-7.933,7.8c-1.325,1.3-2.638,2.609-3.989,3.879l-4.092,3.77c-2.734,2.507-5.439,5.047-8.218,7.5l-8.451,7.241-2.122,1.8c-.713.593-1.406,1.208-2.136,1.781l-4.366,3.451c-1.451,1.155-2.922,2.284-4.383,3.426s-2.925,2.279-4.4,3.405a.257.257,0,0,1-.324-.4l.007-.007q2.109-1.811,4.238-3.594c1.418-1.191,2.825-2.395,4.252-3.573l4.269-3.549c1.407-1.2,2.771-2.455,4.168-3.669l8.359-7.306,8.188-7.5,4.1-3.746c.685-.623,1.337-1.28,2.008-1.917l2.008-1.917,8.033-7.668c5.224-5.245,10.536-10.41,15.581-15.833,2.548-2.687,5.126-5.347,7.587-8.114,2.482-2.749,4.987-5.477,7.45-8.241l7.306-8.37c2.411-2.812,4.78-5.658,7.172-8.486,1.2-1.407,2.355-2.858,3.531-4.289l3.511-4.305c1.175-1.431,2.3-2.9,3.459-4.347s2.3-2.9,3.439-4.363c4.52-5.866,8.977-11.789,13.221-17.851l0,0a.257.257,0,0,1,.421.295Z" transform="translate(-1886.235 -1743.739)" fill="#fff" opacity="0.62"/>
        </g>
        <g id="Group_4" data-name="Group 4" opacity="0.79">
          <path id="Path_4" data-name="Path 4" d="M1734,613.965S1761.293,488.72,1843.687,423.8a1.879,1.879,0,0,1,2.992,1.017C1851.862,445.784,1878.847,579.551,1734,613.965Z" transform="translate(-1734 -423.388)" fill="url(#linear-gradient-3)"/>
          <path id="Path_5" data-name="Path 5" d="M1872.871,778.6c-.946,3.633-2.047,7.213-3.208,10.776s-2.387,7.1-3.686,10.619q-3.909,10.541-8.5,20.813c-.759,1.714-1.558,3.409-2.336,5.115s-1.627,3.377-2.438,5.067-1.675,3.354-2.519,5.027l-1.278,2.505L1847.582,841c-3.522,6.619-7.232,13.143-11.231,19.489s-8.179,12.58-12.676,18.585c-.557.754-1.1,1.517-1.668,2.265l-1.725,2.222-1.725,2.222c-.578.738-1.139,1.49-1.746,2.205l-3.583,4.338-.9,1.081-.932,1.054-1.864,2.107a219.188,219.188,0,0,1-32.926,30.542.224.224,0,0,1-.276-.352l0,0,4.345-3.544,2.176-1.766,2.106-1.85,4.207-3.7,4.067-3.854c.673-.647,1.367-1.273,2.03-1.93l1.97-1.992c1.306-1.334,2.64-2.641,3.924-4,2.523-2.753,5.106-5.451,7.508-8.311l1.832-2.118.916-1.059.883-1.086,3.543-4.337c.6-.715,1.157-1.465,1.729-2.2l1.709-2.218,1.709-2.218c.56-.746,1.1-1.508,1.652-2.261,4.454-5.994,8.581-12.226,12.551-18.549,3.991-6.312,7.721-12.789,11.251-19.372l1.327-2.467,1.282-2.491c.848-1.664,1.721-3.316,2.529-5,1.658-3.347,3.259-6.723,4.834-10.11q4.691-10.179,8.716-20.652,2.042-5.221,3.874-10.521.924-2.647,1.782-5.316c.582-1.775,1.138-3.562,1.652-5.353v0a.224.224,0,0,1,.432.119Z" transform="translate(-1771.932 -742.059)" fill="#fff" opacity="0.62"/>
        </g>
      </g>
      <g id="Group_6" data-name="Group 6" transform="translate(0 7.615)" opacity="0.76">
        <path id="Path_6" data-name="Path 6" d="M538.148,674.174s-10.644-111.1-75.163-175.755a1.636,1.636,0,0,0-2.692.57C453.644,516.584,416.48,629.441,538.148,674.174Z" transform="translate(-449.776 -497.934)" fill="url(#linear-gradient-4)"/>
        <path id="Path_7" data-name="Path 7" d="M616.689,815.05c1.1,6.406,2.526,12.768,4.155,19.065q2.4,9.459,5.415,18.747c1.015,3.09,2.051,6.172,3.138,9.236.525,1.539,1.109,3.057,1.67,4.582l.851,2.285.892,2.269c2.372,6.054,4.929,12.036,7.726,17.9,2.776,5.876,5.7,11.689,8.925,17.331.4.708.787,1.422,1.194,2.125l1.247,2.094,1.247,2.094c.419.7.821,1.4,1.267,2.082l2.612,4.116.65,1.031.681,1.01,1.362,2.021c1.778,2.722,3.729,5.322,5.623,7.964.968,1.3,1.985,2.573,2.975,3.862l1.495,1.926c.5.637,1.039,1.25,1.553,1.879l3.112,3.756,3.248,3.639,1.626,1.819,1.7,1.754,3.383,3.519,0,0a.224.224,0,0,1-.316.317,189.864,189.864,0,0,1-25.348-29.789l-1.4-2.014-.7-1.007-.667-1.027-2.652-4.122c-.451-.682-.858-1.39-1.282-2.088l-1.263-2.1-1.263-2.1c-.412-.705-.805-1.421-1.209-2.131-3.269-5.658-6.23-11.488-9.045-17.382s-5.332-11.929-7.692-18.018l-.886-2.283-.845-2.3c-.557-1.535-1.137-3.061-1.657-4.609s-1.083-3.081-1.583-4.635-1.01-3.1-1.487-4.666a254.746,254.746,0,0,1-8.9-38.1.224.224,0,0,1,.442-.07Z" transform="translate(-599.237 -782.481)" fill="#fff" opacity="0.62"/>
      </g>
      <g id="Group_11" data-name="Group 11" transform="translate(28.289 0.76)">
        <path id="Path_8" data-name="Path 8" d="M729.565,444.646c-.924,43.2-3.92,192.2-2.49,245.007.152,5.594,4.021,10.084,8.847,10.267,23.869.905,111.373,3.2,150.416,1.3,8.132-.4,14.6-8.03,14.768-17.462.811-45.342,2.6-172.871-1.653-231.293-.51-7-5.25-12.574-11.28-13.273-25.995-3.014-113.875-10.382-147.606-7.845C734.483,431.806,729.716,437.582,729.565,444.646Z" transform="translate(-726.694 -430.826)" fill="url(#linear-gradient-5)"/>
        <path id="Path_9" data-name="Path 9" d="M821.257,595.951c-1.285,34.792-5.337,150.537-4.051,193.337.188,6.256,4.451,11.314,9.854,11.68,22.245,1.506,98.14,4.825,130.769,1.8,5.875-.544,10.486-6.04,10.8-12.847,1.653-35.5,6.4-143.27,5.168-185.59-.2-6.751-4.718-12.265-10.536-12.869-24.066-2.5-104.713-8.445-132.439-6.7C825.619,585.1,821.479,589.927,821.257,595.951Z" transform="translate(-807.736 -568.758)" fill="url(#linear-gradient-6)"/>
        <path id="Path_10" data-name="Path 10" d="M1443.17,497.939h0a2.375,2.375,0,0,0,2.033,2.511c5.638.345,21.52,1.323,28.618,1.8a2.4,2.4,0,0,0,2.232-2.987l-.045-.275a2.309,2.309,0,0,0-1.913-2.028c-4.8-.514-19.275-1.94-28.867-1.54A2.367,2.367,0,0,0,1443.17,497.939Z" transform="translate(-1369.978 -488.763)" opacity="0.61" fill="url(#linear-gradient-7)"/>
        <g id="Group_10" data-name="Group 10" transform="translate(25.297 34.545)">
          <g id="Group_7" data-name="Group 7" transform="translate(25.694)">
            <circle id="Ellipse_1" data-name="Ellipse 1" cx="33.294" cy="33.294" r="33.294" fill="url(#linear-gradient-8)"/>
            <path id="Path_11" data-name="Path 11" d="M1472.112,887.051c0,5.637-4.57,11.724-10.207,11.724s-10.208-6.086-10.208-11.724,4.57-9.637,10.208-9.637S1472.112,881.413,1472.112,887.051Z" transform="translate(-1428.625 -866.338)" fill="#fff"/>
            <path id="Path_12" data-name="Path 12" d="M1365.515,1136.824h24.918a6.032,6.032,0,0,0,5.745-4.194l1.341-4.191a6.025,6.025,0,0,0-3.64-7.5c-10.141-3.708-20.627-3.232-31.368.342a6.006,6.006,0,0,0-3.849,7.281l1.032,3.806A6.031,6.031,0,0,0,1365.515,1136.824Z" transform="translate(-1344.903 -1082.682)" fill="#fff"/>
          </g>
          <g id="Group_8" data-name="Group 8" transform="translate(0 100.858)" opacity="0.71">
            <path id="Path_13" data-name="Path 13" d="M1102.98,1775.183H981.505a.69.69,0,0,1-.69-.69v-17.521a.689.689,0,0,1,.69-.689H1102.98a.689.689,0,0,1,.69.689v17.521A.689.689,0,0,1,1102.98,1775.183Z" transform="translate(-980.153 -1756.282)" fill="#fff" opacity="0.65"/>
            <path id="Path_14" data-name="Path 14" d="M1096.49,2077.052H975.016a.69.69,0,0,1-.69-.689v-17.522a.689.689,0,0,1,.69-.689h121.475a.69.69,0,0,1,.69.689v17.522A.69.69,0,0,1,1096.49,2077.052Z" transform="translate(-974.326 -2027.314)" fill="#fff" opacity="0.65"/>
            <path id="Path_15" data-name="Path 15" d="M1247.868,2391.435h-77.662a.851.851,0,0,1-.851-.851V2368.19a.851.851,0,0,1,.851-.851h77.662a.851.851,0,0,1,.851.851v22.395A.851.851,0,0,1,1247.868,2391.435Z" transform="translate(-1149.432 -2304.916)" fill="#fff" opacity="0.65"/>
          </g>
          <path id="Path_16" data-name="Path 16" d="M1106.036,1808.689h-70.723a1.226,1.226,0,0,1-1.226-1.226v-8.049a1.226,1.226,0,0,1,1.226-1.226h70.723a1.226,1.226,0,0,1,1.226,1.226v8.049A1.225,1.225,0,0,1,1106.036,1808.689Z" transform="translate(-1027.982 -1693.049)" fill="#fff" opacity="0.75"/>
          <g id="Group_9" data-name="Group 9" transform="translate(3.02 134.99)" opacity="0.75">
            <circle id="Ellipse_2" data-name="Ellipse 2" cx="4.311" cy="4.311" r="4.311" transform="translate(0 3.3) rotate(-22.5)" fill="#fff"/>
            <circle id="Ellipse_3" data-name="Ellipse 3" cx="4.311" cy="4.311" r="4.311" transform="translate(11.828 3.521) rotate(-22.5)" fill="#fff"/>
            <circle id="Ellipse_4" data-name="Ellipse 4" cx="4.311" cy="4.311" r="4.311" transform="translate(23.213 4.074) rotate(-22.5)" fill="#fff"/>
            <circle id="Ellipse_5" data-name="Ellipse 5" cx="4.311" cy="4.311" r="4.311" transform="translate(34.568 6.624) rotate(-45)" fill="#fff"/>
            <circle id="Ellipse_6" data-name="Ellipse 6" cx="4.311" cy="4.311" r="4.311" transform="translate(47.304 9.738) rotate(-76.714)" fill="#fff"/>
            <circle id="Ellipse_7" data-name="Ellipse 7" cx="4.311" cy="4.311" r="4.311" transform="translate(59.381 10.302) rotate(-80.782)" fill="#fff"/>
          </g>
        </g>
      </g>
      <g id="Group_12" data-name="Group 12" transform="translate(108.302 61.117)">
        <path id="Path_17" data-name="Path 17" d="M2115.42,2294.08l13.207,3.3-3.3,24.762a28.127,28.127,0,0,1,6.6,11.556c1.651,6.6,3.173,34.33,3.173,34.33l3.134,1.895.381,1.581-9.117,12.259,1.512-9.757c.24-1.549-.176-4.69-.045-4.756-4.953-13.207-15.546-50.409-15.546-50.409Z" transform="translate(-2057.99 -2166.613)" fill="url(#linear-gradient-9)"/>
        <path id="Path_18" data-name="Path 18" d="M2017.649,2168.553c.143,0,.284.009.427,0-.638-7.961-3.555-43-6.473-56.135-3.3-14.857,4.952-44.573,4.952-44.573l14.858,14.857-8.254,28.064c5.657,8.485-.922,58.174-.781,58.152l-.009.11,2.154,2.962-.262,1.605-13.157,7.764,5.177-8.407A9.44,9.44,0,0,0,2017.649,2168.553Z" transform="translate(-1964.079 -1963.49)" fill="url(#linear-gradient-10)"/>
        <path id="Path_19" data-name="Path 19" d="M2215.324,1422.81s28.928,32.6,0,49.32l-2.947-2.134s14.362-13.753,0-30.588Z" transform="translate(-2145.043 -1384.348)" fill="url(#linear-gradient-11)"/>
        <path id="Path_20" data-name="Path 20" d="M1995.324,3081.255h4.2a2.528,2.528,0,0,0,2.007-.983c1.309-1.7,4.021-5.02,5.317-5.106,1.746-.117,1.523,6.089,1.523,6.089h.978l1.24-7.711a4.565,4.565,0,0,0-2.4-4.771h0s-.4,2.951-2.562,4.256-8.8,5.98-8.8,5.98a6.011,6.011,0,0,0-1.707.045A1.11,1.11,0,0,0,1995.324,3081.255Z" transform="translate(-1949.167 -2862.166)" fill="url(#linear-gradient-12)"/>
        <path id="Path_21" data-name="Path 21" d="M2236.4,3041.294l3.87-1.628a2.528,2.528,0,0,0,1.468-1.685c.547-2.075,1.76-6.186,2.922-6.769,1.564-.784,3.765,5.022,3.765,5.022l.9-.379-1.848-7.589a4.565,4.565,0,0,0-4.058-3.469h0s.777,2.875-.712,4.917-5.8,8.927-5.8,8.927a6,6,0,0,0-1.555.7A1.111,1.111,0,0,0,2236.4,3041.294Z" transform="translate(-2165.22 -2822.684)" fill="url(#linear-gradient-13)"/>
        <path id="Path_22" data-name="Path 22" d="M1997.051,1819.939s.486,2.976-.226,11.156-4.112,27.387-3.419,45.763c0,0,9.666,2.253,26.46,1.186,0,0,7.088-28.691,5.361-39.6s-11.093-18.732-11.093-18.732Z" transform="translate(-1948.358 -1740.706)" fill="url(#linear-gradient-14)"/>
        <path id="Path_23" data-name="Path 23" d="M2089.431,1222.543l-1.181,13.892h11.225l-2.791-21.205Z" transform="translate(-2033.596 -1197.974)" fill="url(#linear-gradient-15)"/>
        <path id="Path_24" data-name="Path 24" d="M1992.242,1400.45c-3.874-.214-12.535-.609-18.671-.274a7.127,7.127,0,0,0-6.6,5.661l-1.5,7.172a17.277,17.277,0,0,0,.243,8.07l6.011,22.065s5.346,3.213,17.084-.225c0,0,10.307-24.58,6.088-40.3A2.923,2.923,0,0,0,1992.242,1400.45Z" transform="translate(-1923.038 -1363.91)" fill="url(#linear-gradient-16)"/>
        <path id="Path_25" data-name="Path 25" d="M1676.829,1417.3c-1.653,4.355-3.147,8.922-4.751,13.2-.816,2.141-1.643,4.239-2.528,6.166-.448.96-.94,1.842-1.391,2.641a11.657,11.657,0,0,1-1.226,1.753c-.052.045.122.079.18.082.035,0-1.117.189-1.471.248l-1.382-.008a48.085,48.085,0,0,1-6.474-.888c-4.538-.846-9.257-2.034-14.1-2.933l-.037-.007a1.707,1.707,0,0,0-1.439,2.96,49.665,49.665,0,0,0,6.172,4.507c1.081.661,2.181,1.309,3.3,1.931,1.14.581,2.283,1.167,3.471,1.708a40.276,40.276,0,0,0,7.706,2.618c.748.125,1.486.256,2.255.359.863.03,1.646.106,2.589.052.5-.05,1-.111,1.5-.184a6.746,6.746,0,0,0,.788-.142c.344-.1.687-.219,1.025-.345a10.663,10.663,0,0,0,1.738-.88c.476-.314.911-.643,1.333-.98a18.016,18.016,0,0,0,3.373-3.9,30.863,30.863,0,0,0,2.126-3.764,51.389,51.389,0,0,0,2.926-7.394,69,69,0,0,0,3.055-14.973,4.5,4.5,0,0,0-8.681-1.986Z" transform="translate(-1632.6 -1376.656)" fill="url(#linear-gradient-17)"/>
        <path id="Path_26" data-name="Path 26" d="M1565.855,1599.324l-2-4.755-10.542-2.627s-.843,1.827,3.585,2.627a3.865,3.865,0,0,0-.738,3.8C1557,1600.43,1565.96,1602.489,1565.855,1599.324Z" transform="translate(-1553.245 -1536.203)" fill="url(#linear-gradient-18)"/>
        <path id="Path_27" data-name="Path 27" d="M2036.072,1110.06c-.4.236-3.559,11.374-.912,16.044s10.727-.561,12.917-7.313S2046.748,1103.765,2036.072,1110.06Z" transform="translate(-1984.99 -1101.535)" fill="url(#linear-gradient-19)"/>
        <path id="Path_28" data-name="Path 28" d="M2043.649,1063.566c1.813,8.881,7.818,6.45,12.072,10.4,6.894,6.4,16.756-.2,26.344,5.871,6.922,4.381,10.257,15.589,6.935,24.638-4.6,12.533-20.323,17.687-28.47,13.87-7.787-3.648-6.678-14.575-17.155-18.8-4.448-1.793-6.644-.628-9.308-3.285-4.663-4.651-3.4-13.678-2.92-17.155,1.052-7.545,3.582-8.911,2.372-12.228-2.352-6.45-13.321-5.119-14.235-9.672-.832-4.146,7.118-12.006,14.6-10.767C2045.462,1048.356,2042.842,1059.609,2043.649,1063.566Z" transform="translate(-1971.622 -1046.31)" fill="url(#linear-gradient-20)"/>
        <path id="Path_29" data-name="Path 29" d="M2529.206,1400.075a.3.3,0,0,0,.295-.232c1.482-6.153.81-11.2-2-15-4.662-6.306-13.722-6.93-13.813-6.935a.308.308,0,0,0-.321.284.3.3,0,0,0,.284.321c.088.005,8.875.615,13.365,6.694,2.7,3.648,3.333,8.524,1.895,14.493a.3.3,0,0,0,.224.366A.328.328,0,0,0,2529.206,1400.075Z" transform="translate(-2415.285 -1344.032)" fill="#fff" opacity="0.6"/>
        <path id="Path_30" data-name="Path 30" d="M2183,1352.441a.175.175,0,0,0,.039,0,.153.153,0,0,0,.108-.185c-1.444-5.539-3.977-9.386-7.529-11.434a14.88,14.88,0,0,0-7.138-1.751c-2.059-.119-3.836-.221-5.267-1.493-2.957-2.63-2.786-8.953.509-18.793a.152.152,0,1,0-.288-.1c-3.337,9.966-3.479,16.4-.422,19.115,1.509,1.342,3.335,1.448,5.45,1.569a14.638,14.638,0,0,1,7,1.712c3.479,2.006,5.964,5.791,7.387,11.249A.151.151,0,0,0,2183,1352.441Z" transform="translate(-2098.759 -1290.765)" fill="#fff" opacity="0.72"/>
        <path id="Path_31" data-name="Path 31" d="M2065.077,1124.309a.15.15,0,0,0,.049-.008.152.152,0,0,0,.1-.192c-1.148-3.414-4.454-2.907-7.958-2.368-2.218.341-4.51.692-6.454.117-1.451-.43-2.312-1.1-2.562-1.982-.426-1.506,1.065-3.186,1.08-3.2a.151.151,0,0,0-.225-.2c-.066.073-1.617,1.819-1.147,3.488.279.991,1.211,1.728,2.768,2.19,2.011.6,4.336.239,6.587-.107,3.517-.54,6.557-1.008,7.624,2.166A.15.15,0,0,0,2065.077,1124.309Z" transform="translate(-1997.338 -1109.257)" fill="#fff" opacity="0.72"/>
      </g>
      <g id="Group_16" data-name="Group 16" transform="translate(207.265 15.902)">
        <g id="Group_13" data-name="Group 13">
          <path id="Path_32" data-name="Path 32" d="M2543.39,607.348c0-15.629,13.239-28.3,29.127-28.3,15.418,0,27.586,12,27.586,26.806s-12.168,27.443-27.586,28.255C2556.629,634.949,2543.39,622.977,2543.39,607.348Z" transform="translate(-2543.39 -579.052)" fill="url(#linear-gradient-21)"/>
        </g>
        <g id="Group_14" data-name="Group 14" transform="translate(2.657 2.582)">
          <path id="Path_33" data-name="Path 33" d="M2569.4,629.97c0-14.165,12-25.646,26.4-25.644,13.973,0,25,10.878,25,24.294s-11.028,24.871-25,25.607C2581.4,654.985,2569.4,644.135,2569.4,629.97Z" transform="translate(-2569.4 -604.326)" fill="url(#linear-gradient-22)"/>
        </g>
        <g id="Group_15" data-name="Group 15" transform="translate(16.049 9.272)">
          <path id="Path_34" data-name="Path 34" d="M2723.3,687.165h-2.366v-9.427a7.339,7.339,0,0,1,6.448-7.279l4.837-.588a7.332,7.332,0,0,1,8.216,7.279v8.23h-2.365v-8.23a4.967,4.967,0,0,0-5.566-4.93l-4.837.588a4.971,4.971,0,0,0-4.368,4.93v9.427Z" transform="translate(-2718.844 -669.817)" fill="#fff"/>
          <path id="Path_35" data-name="Path 35" d="M2701.879,808.794l20.737-1.149a1.469,1.469,0,0,1,1.551,1.467V825.54a1.469,1.469,0,0,1-1.469,1.469h-20.239a1.47,1.47,0,0,1-1.469-1.422l-.5-15.28A1.47,1.47,0,0,1,2701.879,808.794Z" transform="translate(-2700.491 -793.563)" fill="#fff"/>
          <path id="Path_36" data-name="Path 36" d="M2789.441,857.376l-1.256-3.609a1.209,1.209,0,0,1,.275-1.246,3.417,3.417,0,1,0-4.584.255,1.218,1.218,0,0,1,.4,1.346l-1.132,3.254a1.218,1.218,0,0,0,1.15,1.618h4A1.218,1.218,0,0,0,2789.441,857.376Z" transform="translate(-2774.222 -828.635)" fill="url(#linear-gradient-23)"/>
        </g>
      </g>
      <g id="Group_25" data-name="Group 25" transform="translate(1.799 165.275)">
        <g id="Group_20" data-name="Group 20">
          <g id="Group_17" data-name="Group 17" transform="translate(0 38.802)" opacity="0.3">
            <path id="Path_37" data-name="Path 37" d="M536.034,2563.411a1.2,1.2,0,0,1-.4,1.5c-1.06.7-2.164,1.372-3.283,1.982a1.088,1.088,0,0,1-1.5-.5l-.01-.021a1.194,1.194,0,0,1,.481-1.553c1.063-.58,2.113-1.213,3.119-1.883a1.082,1.082,0,0,1,1.535.363C536,2563.34,536.017,2563.376,536.034,2563.411Zm-8.7,4.444a1.248,1.248,0,0,1,.052.128,1.181,1.181,0,0,1-.671,1.491c-1.187.444-2.4.839-3.617,1.173a1.111,1.111,0,0,1-1.36-.833,1.171,1.171,0,0,1,.79-1.425c1.153-.318,2.309-.693,3.437-1.115A1.091,1.091,0,0,1,527.333,2567.855Zm-9.421,2.317a1.213,1.213,0,0,1,.108.381,1.154,1.154,0,0,1-.971,1.3c-1.249.155-2.521.254-3.779.3a1.169,1.169,0,0,1-.075-2.334c1.2-.039,2.4-.134,3.589-.281A1.1,1.1,0,0,1,517.912,2570.172Zm-9.685.046a1.215,1.215,0,0,1,.11.643,1.123,1.123,0,0,1-1.223,1.034c-1.252-.143-2.514-.344-3.75-.6a1.17,1.17,0,0,1-.88-1.371,1.113,1.113,0,0,1,1.3-.921c1.173.242,2.372.433,3.562.569A1.12,1.12,0,0,1,508.227,2570.218Zm-9.456-2.224a1.218,1.218,0,0,1,.057.9,1.1,1.1,0,0,1-1.412.723c-1.188-.43-2.377-.92-3.53-1.456a1.193,1.193,0,0,1-.571-1.54,1.09,1.09,0,0,1,1.465-.6c1.1.51,2.226.975,3.355,1.384A1.132,1.132,0,0,1,498.77,2567.994Zm-8.757-4.364a1.218,1.218,0,0,1-.048,1.134,1.08,1.08,0,0,1-1.53.377c-1.071-.7-2.127-1.45-3.138-2.239a1.207,1.207,0,0,1-.231-1.634,1.076,1.076,0,0,1,1.555-.239c.961.75,1.964,1.466,2.982,2.127A1.151,1.151,0,0,1,490.013,2563.63Zm-20.52-37.113a1.211,1.211,0,0,1,.115.479c.042,1.254.137,2.523.282,3.771a1.153,1.153,0,0,1-.968,1.3,1.127,1.127,0,0,1-1.238-1.02c-.153-1.315-.253-2.651-.3-3.971a1.142,1.142,0,0,1,1.072-1.205A1.11,1.11,0,0,1,469.493,2526.517Zm12.9,30.827a1.211,1.211,0,0,1-.2,1.338,1.074,1.074,0,0,1-1.572.01c-.9-.928-1.767-1.909-2.585-2.916a1.21,1.21,0,0,1,.121-1.646,1.076,1.076,0,0,1,1.568.132c.777.956,1.6,1.887,2.455,2.769A1.152,1.152,0,0,1,482.4,2557.344Zm-11.471-20.764a1.212,1.212,0,0,1,.079.22c.308,1.213.671,2.429,1.077,3.613a1.182,1.182,0,0,1-.669,1.493,1.1,1.1,0,0,1-1.423-.706c-.427-1.246-.809-2.525-1.133-3.8a1.172,1.172,0,0,1,.787-1.427A1.1,1.1,0,0,1,470.924,2536.579Zm5.377,12.85a1.2,1.2,0,0,1-.4,1.5,1.082,1.082,0,0,1-1.535-.359c-.676-1.115-1.316-2.275-1.9-3.448l-.011-.022a1.2,1.2,0,0,1,.479-1.553,1.088,1.088,0,0,1,1.5.5c.556,1.115,1.163,2.217,1.806,3.275C476.264,2549.356,476.284,2549.392,476.3,2549.429Z" transform="translate(-467.386 -2517.681)" fill="url(#linear-gradient-24)"/>
            <path id="Path_38" data-name="Path 38" d="M471.762,2446.388a1.214,1.214,0,0,1,.1.689c-.083.6-.156,1.2-.217,1.8a1.123,1.123,0,0,1-1.222,1.036,1.157,1.157,0,0,1-.989-1.286c.064-.634.14-1.272.228-1.9a1.1,1.1,0,0,1,2.1-.344Z" transform="translate(-469.223 -2445.737)" fill="url(#linear-gradient-25)"/>
          </g>
          <g id="Group_18" data-name="Group 18" transform="translate(16.633)" opacity="0.3">
            <path id="Path_39" data-name="Path 39" d="M633.743,2149.217a1.2,1.2,0,0,1-.349,1.468c-.466.349-.933.714-1.388,1.085a1.077,1.077,0,0,1-1.56-.207,1.2,1.2,0,0,1,.194-1.638c.479-.391.971-.775,1.462-1.143a1.079,1.079,0,0,1,1.551.275A1.318,1.318,0,0,1,633.743,2149.217Z" transform="translate(-630.21 -2140.122)" fill="url(#linear-gradient-26)"/>
            <path id="Path_40" data-name="Path 40" d="M754.365,2091.832q.342.722.663,1.462a1.19,1.19,0,0,1-.55,1.546,1.093,1.093,0,0,1-1.473-.581c-.494-1.138-1.031-2.252-1.6-3.324a1.2,1.2,0,0,1,.426-1.588,1.086,1.086,0,0,1,1.513.451C753.7,2090.46,754.04,2091.145,754.365,2091.832Zm2.73,7.237a1.222,1.222,0,0,1,.07.185c.358,1.249.669,2.526.925,3.8a1.165,1.165,0,0,1-.857,1.382,1.116,1.116,0,0,1-1.318-.9c-.243-1.208-.539-2.422-.879-3.608a1.175,1.175,0,0,1,.743-1.453A1.1,1.1,0,0,1,757.094,2099.069Zm-6.959-14.418a1.2,1.2,0,0,1-.325,1.449,1.078,1.078,0,0,1-1.558-.23c-.709-.986-1.467-1.952-2.255-2.874a1.21,1.21,0,0,1,.083-1.649,1.075,1.075,0,0,1,1.57.091c.83.971,1.628,1.989,2.375,3.027A1.256,1.256,0,0,1,750.135,2084.65Zm8.686,24.268a1.218,1.218,0,0,1,.113.438c.088,1.3.124,2.616.107,3.917a1.113,1.113,0,1,1-2.223-.037c.016-1.235-.019-2.486-.1-3.719a1.146,1.146,0,0,1,1.03-1.245A1.108,1.108,0,0,1,758.822,2108.918Zm-15.241-31.542a1.214,1.214,0,0,1-.146,1.273,1.075,1.075,0,0,1-1.567.135c-.9-.8-1.839-1.566-2.8-2.284a1.206,1.206,0,0,1-.264-1.628,1.077,1.077,0,0,1,1.55-.273c1.012.756,2,1.565,2.948,2.405A1.148,1.148,0,0,1,743.581,2077.376Zm-7.911-5.592a1.219,1.219,0,0,1-.009,1.061,1.084,1.084,0,0,1-1.5.492c-1.044-.574-2.123-1.109-3.207-1.59a1.191,1.191,0,0,1-.6-1.53,1.091,1.091,0,0,1,1.455-.621c1.141.506,2.276,1.068,3.375,1.673A1.14,1.14,0,0,1,735.67,2071.784Zm-8.88-3.651a1.217,1.217,0,0,1,.078.822,1.1,1.1,0,0,1-1.361.823c-1.138-.323-2.3-.6-3.459-.819a1.167,1.167,0,0,1-.9-1.358,1.114,1.114,0,0,1,1.291-.939c1.217.233,2.442.523,3.64.862A1.129,1.129,0,0,1,726.79,2068.133Zm-9.421-1.531a1.214,1.214,0,0,1,.115.568,1.131,1.131,0,0,1-1.156,1.116c-1.177-.053-2.369-.055-3.543,0a1.169,1.169,0,0,1-.1-2.333c1.237-.054,2.492-.053,3.731,0A1.115,1.115,0,0,1,717.369,2066.6Zm-9.51.678a1.215,1.215,0,0,1,.1.311,1.161,1.161,0,0,1-.893,1.356c-1.155.22-2.317.494-3.453.816a1.111,1.111,0,0,1-1.365-.823,1.172,1.172,0,0,1,.781-1.432c1.2-.339,2.419-.628,3.635-.859A1.1,1.1,0,0,1,707.858,2067.28Zm-9.125,2.854c.01.021.02.043.029.066a1.187,1.187,0,0,1-.59,1.529c-.8.353-1.595.736-2.369,1.139q-.421.219-.834.446a1.087,1.087,0,0,1-1.5-.495,1.181,1.181,0,0,1,.467-1.575q.436-.24.878-.469c.814-.424,1.653-.827,2.492-1.2A1.09,1.09,0,0,1,698.733,2070.134Z" transform="translate(-686.886 -2065.909)" fill="url(#linear-gradient-27)"/>
            <path id="Path_41" data-name="Path 41" d="M1309.434,2579.4a1.216,1.216,0,0,1,.1.695c-.09.625-.2,1.259-.311,1.886a1.112,1.112,0,0,1-1.3.92,1.169,1.169,0,0,1-.879-1.371c.11-.595.209-1.2.3-1.791a1.1,1.1,0,0,1,2.094-.339Z" transform="translate(-1237.883 -2526.36)" fill="url(#linear-gradient-28)"/>
          </g>
          <g id="Group_19" data-name="Group 19" transform="translate(11.535 12.589)">
            <path id="Path_42" data-name="Path 42" d="M644.737,2234.19a.566.566,0,0,0-.117-.622l-4.6-4.571a30.353,30.353,0,0,0,.287-9.367l4.862-4.228a.563.563,0,0,0,.154-.612l-2.678-7.46a.522.522,0,0,0-.5-.354l-6.317.175a28.51,28.51,0,0,0-6.109-6.848l.584-6.612a.552.552,0,0,0-.3-.549l-6.912-3.3a.5.5,0,0,0-.592.121l-4.341,4.819a26.253,26.253,0,0,0-8.92-.324l-4.037-5.117a.5.5,0,0,0-.583-.163l-7.1,2.795a.545.545,0,0,0-.336.526l.182,6.635a28.046,28.046,0,0,0-6.506,6.4l-6.3-.629a.515.515,0,0,0-.521.317l-3.124,7.251a.566.566,0,0,0,.117.622l4.6,4.571a30.347,30.347,0,0,0-.287,9.367l-4.862,4.228a.562.562,0,0,0-.154.612l2.678,7.46a.521.521,0,0,0,.5.354l6.317-.175a28.509,28.509,0,0,0,6.109,6.848l-.584,6.612a.551.551,0,0,0,.3.548l6.912,3.3a.5.5,0,0,0,.592-.121l4.341-4.819a26.253,26.253,0,0,0,8.92.323l4.037,5.117a.5.5,0,0,0,.583.163l7.1-2.795a.545.545,0,0,0,.336-.525l-.182-6.635a28.045,28.045,0,0,0,6.506-6.4l6.3.629a.515.515,0,0,0,.521-.317Z" transform="translate(-580.298 -2189.147)" fill="url(#linear-gradient-29)"/>
            <path id="Path_43" data-name="Path 43" d="M838.535,2449.894a8.254,8.254,0,0,1-2.472,10.129A7.413,7.413,0,0,1,825.449,2458a8.283,8.283,0,0,1-1.248-5.99,7.975,7.975,0,0,1,3.149-5.152,7.412,7.412,0,0,1,10.613,2.023A8.159,8.159,0,0,1,838.535,2449.894Zm-12.068,6.258a6.325,6.325,0,0,0,.442.784,5.684,5.684,0,0,0,8.137,1.552,6.337,6.337,0,0,0,1.458-8.543,5.684,5.684,0,0,0-8.137-1.552,6.118,6.118,0,0,0-2.414,3.95A6.376,6.376,0,0,0,826.467,2456.152Z" transform="translate(-799.176 -2419.254)" fill="#fff" opacity="0.56"/>
            <path id="Path_44" data-name="Path 44" d="M749.166,2341.331q.427.9.77,1.856h0q.108.3.207.6a20.655,20.655,0,0,1,.74,3.058l.007.042c.006.04.013.08.018.12q.018.117.035.234a.472.472,0,0,1-.241.487.439.439,0,0,1-.638-.351,19.663,19.663,0,0,0-.96-3.867,18.191,18.191,0,0,0-13.072-11.768,16.936,16.936,0,0,0-9.94.785,17.582,17.582,0,0,0-1.685.767,18.174,18.174,0,0,0-8.282,9.03,19.491,19.491,0,0,0-.435,14.346c3.479,9.688,13.8,14.611,23.013,10.983a17.446,17.446,0,0,0,1.663-.758,17.938,17.938,0,0,0,6.022-5.11.448.448,0,0,1,.15-.127.427.427,0,0,1,.474.053.484.484,0,0,1,.072.657,18.835,18.835,0,0,1-6.323,5.365,18.3,18.3,0,0,1-1.745.8c-9.672,3.81-20.51-1.366-24.159-11.53a20.463,20.463,0,0,1,.457-15.061,19.081,19.081,0,0,1,8.695-9.479,18.709,18.709,0,0,1,1.768-.806,17.81,17.81,0,0,1,14.341.515A19.111,19.111,0,0,1,749.166,2341.331Z" transform="translate(-700.019 -2315.966)" fill="#fff" opacity="0.56"/>
          </g>
        </g>
        <g id="Group_24" data-name="Group 24" transform="translate(62.989 53.395)">
          <g id="Group_21" data-name="Group 21" transform="translate(0 38.929)" opacity="0.3">
            <path id="Path_45" data-name="Path 45" d="M1538.753,3105.88a.746.746,0,0,1-.148.85c-.428.415-.873.823-1.324,1.21a.665.665,0,0,1-.966-.1.745.745,0,0,1,.095-1.015c.43-.369.854-.757,1.262-1.154a.664.664,0,0,1,.97.041A.705.705,0,0,1,1538.753,3105.88Z" transform="translate(-1489.966 -3091.604)" fill="url(#linear-gradient-30)"/>
            <path id="Path_46" data-name="Path 46" d="M1128.586,2987.313a.741.741,0,0,1-.248.93,29.307,29.307,0,0,1-2.632,1.549q-.284.148-.572.29a.7.7,0,0,1-.914-.347.736.736,0,0,1,.328-.959q.276-.136.547-.277a28.1,28.1,0,0,0,2.51-1.477.668.668,0,0,1,.947.226Zm-6.448,3.177a.757.757,0,0,1,.038.1.728.728,0,0,1-.437.91,28.6,28.6,0,0,1-3.534.969.692.692,0,0,1-.807-.569.718.718,0,0,1,.54-.846,27.29,27.29,0,0,0,3.371-.924A.678.678,0,0,1,1122.138,2990.49Zm-6.993,1.438a.757.757,0,0,1,.07.27.709.709,0,0,1-.636.769,28.289,28.289,0,0,1-3.657.027.71.71,0,0,1-.649-.76.7.7,0,0,1,.721-.68,26.8,26.8,0,0,0,3.487-.025A.687.687,0,0,1,1115.145,2991.929Zm-7.12-.412a.753.753,0,0,1,.061.447.689.689,0,0,1-.8.582,28.685,28.685,0,0,1-3.553-.914.731.731,0,0,1-.453-.9.68.68,0,0,1,.859-.474,27.251,27.251,0,0,0,3.388.872A.69.69,0,0,1,1108.025,2991.517Zm-6.812-2.225a.753.753,0,0,1,.012.617.673.673,0,0,1-.908.36,29.644,29.644,0,0,1-3.235-1.792.742.742,0,0,1-.232-.991.667.667,0,0,1,.943-.241,28.248,28.248,0,0,0,3.087,1.709A.707.707,0,0,1,1101.213,2989.292Zm-6.095-3.893a.752.752,0,0,1-.076.768.665.665,0,0,1-.964.117,30.2,30.2,0,0,1-2.723-2.565.748.748,0,0,1,.006-1.02.664.664,0,0,1,.971.009,28.693,28.693,0,0,0,2.6,2.445A.708.708,0,0,1,1095.119,2985.4Zm-5-5.336a.744.744,0,0,1-.2.892.666.666,0,0,1-.963-.135,31.547,31.547,0,0,1-2.043-3.188.745.745,0,0,1,.244-.987.67.67,0,0,1,.94.258,29.847,29.847,0,0,0,1.948,3.041A.766.766,0,0,1,1090.114,2980.063Zm-4.828-9.995a.729.729,0,0,1,.044.119,31.043,31.043,0,0,0,1.011,3c.058.149.117.3.177.44a.735.735,0,0,1-.356.948.67.67,0,0,1-.9-.376c-.064-.155-.127-.31-.187-.466a32.55,32.55,0,0,1-1.058-3.147.725.725,0,0,1,.465-.894A.678.678,0,0,1,1085.286,2970.068Z" transform="translate(-1083.985 -2969.668)" fill="url(#linear-gradient-31)"/>
          </g>
          <g id="Group_22" data-name="Group 22" transform="translate(27.89)" opacity="0.3">
            <path id="Path_47" data-name="Path 47" d="M1383.958,2605.551a.738.738,0,0,1-.3.962.673.673,0,0,1-.924-.314,30.256,30.256,0,0,0-1.749-3.1.747.747,0,0,1,.183-1,.667.667,0,0,1,.954.194,31.882,31.882,0,0,1,1.833,3.251S1383.956,2605.548,1383.958,2605.551Zm1.415,3.38a.776.776,0,0,1,.03.072,32.822,32.822,0,0,1,1.045,3.616.721.721,0,0,1-.508.867.689.689,0,0,1-.828-.535,31.333,31.333,0,0,0-1-3.45.73.73,0,0,1,.405-.925A.674.674,0,0,1,1385.373,2608.932Zm-5.351-9.483a.746.746,0,0,1-.163.863.664.664,0,0,1-.968-.071,29.33,29.33,0,0,0-2.411-2.567.747.747,0,0,1-.052-1.019.664.664,0,0,1,.97-.053,30.765,30.765,0,0,1,2.527,2.692A.772.772,0,0,1,1380.022,2599.449ZM1387,2616.1a.746.746,0,0,1,.068.241,32.451,32.451,0,0,1,.183,3.774.7.7,0,0,1-.694.712.709.709,0,0,1-.679-.73,31.048,31.048,0,0,0-.175-3.6.711.711,0,0,1,.606-.8A.682.682,0,0,1,1387,2616.1Zm-12.2-21.58a.751.751,0,0,1-.051.734.665.665,0,0,1-.956.177,28.1,28.1,0,0,0-2.925-1.885.74.74,0,0,1-.285-.976.669.669,0,0,1,.928-.3,29.784,29.784,0,0,1,3.067,1.976A.725.725,0,0,1,1374.8,2594.522Zm-6.192-3.469a.753.753,0,0,1,.026.581.675.675,0,0,1-.887.412,27.8,27.8,0,0,0-3.269-1.1.726.726,0,0,1-.5-.877.682.682,0,0,1,.833-.521,29.04,29.04,0,0,1,3.427,1.149A.7.7,0,0,1,1368.609,2591.053Zm-6.8-1.813a.747.747,0,0,1,.066.411.692.692,0,0,1-.767.624,26.722,26.722,0,0,0-3.422-.242.722.722,0,0,1,.005-1.442,28.273,28.273,0,0,1,3.589.253A.69.69,0,0,1,1361.808,2589.24Z" transform="translate(-1357.001 -2588.59)" fill="url(#linear-gradient-32)"/>
            <path id="Path_48" data-name="Path 48" d="M1636.054,2926.8a.749.749,0,0,1,.066.417c-.078.612-.173,1.223-.284,1.819a.687.687,0,0,1-.805.568.724.724,0,0,1-.543-.847c.105-.568.2-1.151.271-1.735a.678.678,0,0,1,1.3-.222Z" transform="translate(-1606.13 -2891.886)" fill="url(#linear-gradient-33)"/>
          </g>
          <g id="Group_23" data-name="Group 23" transform="translate(6.5 8.363)">
            <path id="Path_49" data-name="Path 49" d="M1190.731,2700.6a.378.378,0,0,0-.078-.416l-3.077-3.058a20.314,20.314,0,0,0,.192-6.268l3.253-2.829a.376.376,0,0,0,.1-.409l-1.792-4.992a.349.349,0,0,0-.335-.237l-4.227.117a19.078,19.078,0,0,0-4.088-4.583l.391-4.424a.369.369,0,0,0-.2-.367l-4.625-2.207a.335.335,0,0,0-.4.081l-2.9,3.224a17.574,17.574,0,0,0-5.969-.217l-2.7-3.424a.338.338,0,0,0-.39-.109l-4.749,1.87a.364.364,0,0,0-.225.351l.122,4.44a18.761,18.761,0,0,0-4.354,4.282l-4.213-.421a.344.344,0,0,0-.349.212l-2.091,4.853a.379.379,0,0,0,.078.416l3.077,3.059a20.3,20.3,0,0,0-.192,6.268l-3.254,2.829a.376.376,0,0,0-.1.409l1.792,4.992a.349.349,0,0,0,.335.237l4.227-.118a19.072,19.072,0,0,0,4.088,4.583l-.391,4.424a.369.369,0,0,0,.2.367l4.625,2.207a.336.336,0,0,0,.4-.081l2.9-3.224a17.561,17.561,0,0,0,5.969.216l2.7,3.424a.337.337,0,0,0,.39.109l4.748-1.87a.364.364,0,0,0,.225-.352l-.122-4.44a18.765,18.765,0,0,0,4.354-4.282l4.213.421a.345.345,0,0,0,.349-.212Z" transform="translate(-1147.612 -2670.458)" fill="url(#linear-gradient-34)"/>
            <path id="Path_50" data-name="Path 50" d="M1319.739,2844.028a5.664,5.664,0,0,1,.457,3.384,5.435,5.435,0,0,1-2.145,3.51,5.05,5.05,0,0,1-7.229-1.378,5.632,5.632,0,0,1,1.3-7.59,4.955,4.955,0,0,1,3.883-.883,5.155,5.155,0,0,1,3.347,2.261A5.638,5.638,0,0,1,1319.739,2844.028Zm-8.076,4.186a4.113,4.113,0,0,0,.286.508,3.715,3.715,0,0,0,5.318,1.013,4,4,0,0,0,1.577-2.581,4.158,4.158,0,0,0-.625-3h0a3.8,3.8,0,0,0-2.461-1.663,3.645,3.645,0,0,0-2.857.65A4.137,4.137,0,0,0,1311.662,2848.215Z" transform="translate(-1293.315 -2823.561)" fill="#fff" opacity="0.56"/>
            <path id="Path_51" data-name="Path 51" d="M1257.55,2768.591q.29.614.526,1.268a14.238,14.238,0,0,1,.677,2.677l.018.123a.729.729,0,0,1-.372.751.666.666,0,0,1-.205.067.7.7,0,0,1-.78-.609,12.711,12.711,0,0,0-.621-2.5h0c-.016-.044-.032-.089-.049-.133a12.068,12.068,0,0,0-3.284-4.851,11.6,11.6,0,0,0-2.626-1.762l-.023-.011-.072-.034a10.982,10.982,0,0,0-8.844-.318,11.4,11.4,0,0,0-1.091.5,11.769,11.769,0,0,0-5.362,5.846,12.617,12.617,0,0,0-.281,9.287,11.894,11.894,0,0,0,6.054,6.792,10.983,10.983,0,0,0,8.844.318,11.341,11.341,0,0,0,1.076-.49,11.617,11.617,0,0,0,3.9-3.308.683.683,0,0,1,.232-.2.66.66,0,0,1,.732.082.747.747,0,0,1,.112,1.014,13,13,0,0,1-4.362,3.7,12.587,12.587,0,0,1-1.2.549,12.288,12.288,0,0,1-9.895-.356,13.283,13.283,0,0,1-6.773-7.6,14.114,14.114,0,0,1,.315-10.391,13.163,13.163,0,0,1,6-6.54,12.969,12.969,0,0,1,1.22-.556A12.732,12.732,0,0,1,1257.55,2768.591Z" transform="translate(-1224.308 -2751.786)" fill="#fff" opacity="0.56"/>
          </g>
        </g>
      </g>
    </g>
  </g>
</svg>
