<?xml version="1.0" encoding="UTF-8"?>
<svg id="Layer_1" xmlns="http://www.w3.org/2000/svg" viewBox="0 0 407.23 121.54">
  <defs>
    <style>
      .cls-1 {
        fill: #fff;
      }

      .cls-2 {
        fill: #f06935;
      }
    </style>
  </defs>
  <path class="cls-1" d="M119.23,36.53h7.18v20.8c0,6.44-4.21,10.65-10.65,10.65s-10.65-4.21-10.65-10.15c1.19-.05,2.92-.15,4.46-.3l2.72-.2c0,2.23,1.49,3.72,3.47,3.72s3.47-1.49,3.47-3.72v-20.8Z"/>
  <path class="cls-1" d="M141.27,36.53h7.43l11.14,31.2h-7.43l-1.98-5.94h-10.9l-1.98,5.94h-7.43l11.14-31.2ZM148.46,55.6l-3.47-10.4-3.47,10.4h6.93Z"/>
  <polygon class="cls-1" points="164.56 36.53 171.74 36.53 171.74 60.8 185.85 60.8 185.85 67.73 164.56 67.73 164.56 36.53"/>
  <path class="cls-1" d="M199.23,36.53h7.43l11.14,31.2h-7.43l-1.98-5.94h-10.9l-1.98,5.94h-7.43l11.14-31.2ZM206.41,55.6l-3.47-10.4-3.47,10.4h6.93Z"/>
  <path class="cls-1" d="M258.67,64.76c-.74.64-1.54,1.19-2.43,1.63-1.54.79-3.72,1.59-6.49,1.59-8.47,0-15.35-6.93-15.35-15.85s6.88-15.85,15.35-15.85c7.43,0,12.63,5.15,14.12,10.9l-7.43.49c-.79-2.23-2.97-4.46-6.69-4.46-4.51,0-8.17,3.76-8.17,8.91s3.66,8.92,8.17,8.92c4.01,0,6.14-2.23,6.93-4.21h-6.93v-5.94h15.11v16.84h-4.95l-1.24-2.97Z"/>
  <path class="cls-1" d="M272.3,36.53h12.63c6.49,0,10.9,4.51,10.9,9.91.05,6.98-5.89,9.41-5.94,9.41l6.93,11.89h-7.92l-5.7-10.4h-3.72v10.4h-7.18v-31.2ZM284.93,50.4c2.53,0,3.96-1.49,3.96-3.47s-1.44-3.47-3.96-3.47h-5.45v6.93h5.45Z"/>
  <path class="cls-1" d="M301.03,52.13c0-8.92,6.88-15.85,15.35-15.85s15.35,6.93,15.35,15.85-6.88,15.85-15.35,15.85-15.35-6.93-15.35-15.85M324.56,52.13c0-5.15-3.67-8.92-8.17-8.92s-8.17,3.76-8.17,8.92,3.67,8.91,8.17,8.91,8.17-3.76,8.17-8.91"/>
  <path class="cls-1" d="M337.69,36.53h7.18v18.57c0,3.76,2.18,5.94,5.7,5.94s5.7-2.18,5.7-5.94v-18.57h7.18v18.57c0,7.68-5.2,12.88-12.88,12.88s-12.88-5.2-12.88-12.88v-18.57Z"/>
  <path class="cls-1" d="M370.88,36.53h12.13c6.44,0,11.14,4.7,11.14,10.65s-4.7,10.65-11.14,10.65h-4.95v9.91h-7.18v-31.2ZM383.01,50.89c2.23,0,3.96-1.73,3.96-3.71s-1.73-3.72-3.96-3.72h-4.95v7.43h4.95Z"/>
  <path class="cls-1" d="M105.18,81.54h1.27c.13,0,.24.03.33.09.09.06.15.14.18.25l1.38,4.84c.03.12.06.25.09.39.03.14.06.29.08.44.03-.16.06-.3.1-.44.04-.14.07-.27.11-.39l1.59-4.84c.03-.09.09-.16.18-.24.09-.07.19-.11.32-.11h.44c.13,0,.24.03.32.09.09.06.15.14.18.25l1.58,4.84c.08.24.15.5.21.8.03-.15.05-.29.08-.42.03-.13.06-.26.09-.38l1.38-4.84c.03-.09.08-.17.17-.24.09-.07.2-.1.33-.1h1.18l-2.51,8.09h-1.36l-1.77-5.53c-.02-.07-.05-.15-.07-.23-.02-.08-.05-.17-.07-.26-.02.09-.05.18-.07.26-.03.08-.05.16-.07.23l-1.79,5.53h-1.36l-2.51-8.09Z"/>
  <polygon class="cls-1" points="126.72 89.63 125.2 89.63 125.2 86.1 121.4 86.1 121.4 89.63 119.89 89.63 119.89 81.54 121.4 81.54 121.4 85.02 125.2 85.02 125.2 81.54 126.72 81.54 126.72 89.63"/>
  <polygon class="cls-1" points="135.7 81.54 135.7 82.74 132.11 82.74 132.11 84.98 134.93 84.98 134.93 86.14 132.11 86.14 132.11 88.43 135.7 88.43 135.7 89.63 130.59 89.63 130.59 81.54 135.7 81.54"/>
  <path class="cls-1" d="M140.79,86.47v3.16h-1.51v-8.09h2.47c.55,0,1.03.06,1.42.17.39.11.72.27.97.48.25.2.44.45.55.74.12.29.18.6.18.94,0,.27-.04.53-.12.77-.08.24-.19.46-.35.66-.15.2-.34.37-.56.52-.22.15-.48.27-.76.36.19.11.35.26.49.47l2.03,2.99h-1.36c-.13,0-.24-.02-.33-.08-.09-.05-.17-.13-.23-.22l-1.7-2.59c-.06-.1-.13-.16-.21-.21-.08-.04-.19-.06-.34-.06h-.64ZM140.79,85.39h.94c.28,0,.53-.04.74-.11.21-.07.38-.17.52-.29.14-.13.24-.27.3-.45.07-.17.1-.36.1-.56,0-.41-.14-.73-.4-.95-.27-.22-.68-.33-1.24-.33h-.96v2.69Z"/>
  <polygon class="cls-1" points="153.92 81.54 153.92 82.74 150.33 82.74 150.33 84.98 153.16 84.98 153.16 86.14 150.33 86.14 150.33 88.43 153.92 88.43 153.92 89.63 148.81 89.63 148.81 81.54 153.92 81.54"/>
  <polygon class="cls-1" points="166.97 81.54 166.97 82.74 163.38 82.74 163.38 84.98 166.2 84.98 166.2 86.14 163.38 86.14 163.38 88.43 166.97 88.43 166.97 89.63 161.86 89.63 161.86 81.54 166.97 81.54"/>
  <path class="cls-1" d="M171.47,81.55s.09.02.12.03c.04.02.07.04.1.07.03.03.07.07.11.13l4.25,5.41c-.01-.13-.03-.26-.03-.38,0-.13,0-.24,0-.35v-4.92h1.33v8.09h-.78c-.12,0-.22-.02-.3-.06-.08-.04-.15-.1-.23-.2l-4.23-5.39c.01.12.02.24.03.35,0,.12,0,.23,0,.32v4.97h-1.33v-8.09h.79c.07,0,.12,0,.17,0"/>
  <polygon class="cls-1" points="186.92 81.54 186.92 82.77 184.48 82.77 184.48 89.63 182.98 89.63 182.98 82.77 180.53 82.77 180.53 81.54 186.92 81.54"/>
  <polygon class="cls-1" points="195.22 81.54 195.22 82.74 191.63 82.74 191.63 84.98 194.46 84.98 194.46 86.14 191.63 86.14 191.63 88.43 195.22 88.43 195.22 89.63 190.11 89.63 190.11 81.54 195.22 81.54"/>
  <path class="cls-1" d="M200.32,86.47v3.16h-1.51v-8.09h2.47c.55,0,1.03.06,1.42.17.39.11.72.27.97.48.25.2.44.45.55.74.12.29.18.6.18.94,0,.27-.04.53-.12.77-.08.24-.19.46-.35.66-.15.2-.34.37-.56.52-.22.15-.48.27-.76.36.19.11.35.26.49.47l2.03,2.99h-1.36c-.13,0-.24-.02-.33-.08s-.17-.13-.23-.22l-1.7-2.59c-.06-.1-.13-.16-.21-.21-.08-.04-.19-.06-.34-.06h-.64ZM200.32,85.39h.94c.28,0,.53-.04.74-.11.21-.07.38-.17.52-.29.14-.13.24-.27.3-.45.07-.17.1-.36.1-.56,0-.41-.14-.73-.4-.95-.27-.22-.68-.33-1.24-.33h-.96v2.69Z"/>
  <path class="cls-1" d="M209.89,86.78v2.85h-1.51v-8.09h2.64c.54,0,1.01.06,1.41.19s.72.3.98.53c.26.23.45.5.57.82.12.32.19.66.19,1.04s-.07.75-.2,1.08c-.13.33-.33.61-.59.84-.26.24-.59.42-.98.55-.39.13-.85.2-1.38.2h-1.13ZM209.89,85.61h1.13c.28,0,.52-.03.72-.1.2-.07.38-.17.51-.3.13-.13.24-.29.3-.47.07-.19.1-.39.1-.62s-.03-.41-.1-.59c-.07-.18-.17-.32-.3-.45s-.3-.22-.51-.28c-.2-.06-.45-.1-.72-.1h-1.13v2.91Z"/>
  <path class="cls-1" d="M219.13,86.47v3.16h-1.51v-8.09h2.47c.55,0,1.03.06,1.42.17.39.11.72.27.97.48.25.2.44.45.55.74.12.29.18.6.18.94,0,.27-.04.53-.12.77-.08.24-.19.46-.35.66-.15.2-.34.37-.56.52-.22.15-.48.27-.76.36.19.11.35.26.49.47l2.03,2.99h-1.36c-.13,0-.24-.02-.33-.08s-.17-.13-.23-.22l-1.7-2.59c-.06-.1-.13-.16-.21-.21-.08-.04-.19-.06-.34-.06h-.64ZM219.13,85.39h.94c.28,0,.53-.04.74-.11.21-.07.38-.17.52-.29.14-.13.24-.27.3-.45.07-.17.1-.36.1-.56,0-.41-.14-.73-.4-.95-.27-.22-.68-.33-1.24-.33h-.96v2.69Z"/>
  <rect class="cls-1" x="227.33" y="81.54" width="1.51" height="8.09"/>
  <path class="cls-1" d="M237.24,83.01c-.04.08-.09.14-.14.17-.05.03-.12.05-.19.05s-.16-.03-.25-.09c-.09-.06-.2-.12-.33-.19-.13-.07-.28-.14-.44-.19-.17-.06-.37-.09-.6-.09-.21,0-.39.02-.55.08-.15.05-.28.12-.39.21-.11.09-.19.2-.24.32-.05.13-.08.26-.08.41,0,.19.05.35.16.48.11.13.25.23.42.32.18.09.38.17.6.24.22.07.45.15.69.23.23.08.46.17.68.28.23.11.42.24.6.4.18.16.32.36.42.59.11.24.16.52.16.86,0,.37-.06.71-.19,1.03-.13.32-.31.6-.55.83-.24.24-.53.42-.88.56-.35.14-.74.2-1.19.2-.26,0-.51-.03-.76-.08-.25-.05-.49-.12-.72-.21-.23-.09-.44-.2-.64-.34-.2-.13-.38-.28-.54-.44l.44-.72c.04-.05.09-.1.15-.13.06-.04.12-.05.19-.05.09,0,.19.04.3.11.11.08.24.16.38.25.15.09.32.18.52.26.2.08.44.11.72.11.43,0,.76-.1,1-.3s.35-.5.35-.88c0-.21-.05-.39-.16-.52-.11-.13-.25-.25-.42-.34s-.38-.17-.6-.23c-.22-.06-.45-.13-.68-.21-.23-.08-.46-.16-.68-.27-.22-.1-.42-.24-.6-.41-.18-.17-.32-.38-.42-.63-.11-.25-.16-.56-.16-.93,0-.3.06-.58.18-.86s.29-.53.52-.74c.23-.22.5-.39.83-.52.33-.13.7-.2,1.12-.2.48,0,.92.08,1.32.22.4.15.75.36,1.03.63l-.37.71Z"/>
  <polygon class="cls-1" points="246.25 81.54 246.25 82.74 242.66 82.74 242.66 84.98 245.49 84.98 245.49 86.14 242.66 86.14 242.66 88.43 246.25 88.43 246.25 89.63 241.15 89.63 241.15 81.54 246.25 81.54"/>
  <path class="cls-1" d="M258.44,86.65c.05.13.11.26.16.39.05-.13.11-.27.16-.4.05-.13.11-.25.18-.38l2.4-4.48c.03-.06.06-.1.09-.13.03-.03.07-.06.11-.07.04-.02.08-.03.13-.03.05,0,.11,0,.17,0h1.14v8.09h-1.33v-5.23c0-.1,0-.2,0-.32,0-.11.01-.23.03-.35l-2.45,4.59c-.06.1-.13.19-.22.24-.09.06-.19.09-.31.09h-.21c-.12,0-.22-.03-.31-.09-.09-.06-.16-.14-.22-.24l-2.48-4.61c.01.12.03.24.03.36,0,.12,0,.23,0,.33v5.23h-1.33v-8.09h1.14c.07,0,.13,0,.17,0,.05,0,.09.01.13.03.04.01.08.04.11.07.03.03.07.08.1.13l2.42,4.5c.06.12.12.24.18.37"/>
  <polygon class="cls-1" points="271.95 81.54 271.95 82.74 268.36 82.74 268.36 84.98 271.19 84.98 271.19 86.14 268.36 86.14 268.36 88.43 271.95 88.43 271.95 89.63 266.85 89.63 266.85 81.54 271.95 81.54"/>
  <polygon class="cls-1" points="280.6 81.54 280.6 82.74 277.01 82.74 277.01 84.98 279.84 84.98 279.84 86.14 277.01 86.14 277.01 88.43 280.6 88.43 280.6 89.63 275.5 89.63 275.5 81.54 280.6 81.54"/>
  <polygon class="cls-1" points="289.85 81.54 289.85 82.77 287.41 82.77 287.41 89.63 285.91 89.63 285.91 82.77 283.46 82.77 283.46 81.54 289.85 81.54"/>
  <path class="cls-1" d="M297.38,83.01c-.04.08-.09.14-.14.17-.05.03-.12.05-.19.05s-.16-.03-.25-.09c-.09-.06-.2-.12-.33-.19-.13-.07-.28-.14-.44-.19-.17-.06-.37-.09-.6-.09-.21,0-.39.02-.55.08-.15.05-.28.12-.39.21-.11.09-.19.2-.24.32-.05.13-.08.26-.08.41,0,.19.05.35.16.48.11.13.25.23.42.32.18.09.38.17.6.24.22.07.45.15.69.23.23.08.46.17.68.28.23.11.42.24.6.4.18.16.32.36.42.59.11.24.16.52.16.86,0,.37-.06.71-.19,1.03-.13.32-.31.6-.55.83-.24.24-.53.42-.88.56-.35.14-.74.2-1.19.2-.26,0-.51-.03-.76-.08-.25-.05-.49-.12-.72-.21-.23-.09-.44-.2-.64-.34-.2-.13-.38-.28-.54-.44l.44-.72c.04-.05.09-.1.15-.13.06-.04.12-.05.19-.05.09,0,.19.04.3.11.11.08.24.16.38.25.15.09.32.18.52.26.2.08.44.11.72.11.43,0,.76-.1,1-.3s.35-.5.35-.88c0-.21-.05-.39-.16-.52-.11-.13-.25-.25-.42-.34s-.38-.17-.6-.23c-.22-.06-.45-.13-.68-.21-.23-.08-.46-.16-.68-.27-.22-.1-.42-.24-.6-.41-.18-.17-.32-.38-.42-.63-.11-.25-.16-.56-.16-.93,0-.3.06-.58.18-.86s.29-.53.52-.74c.23-.22.5-.39.83-.52.33-.13.7-.2,1.12-.2.48,0,.92.08,1.32.22.4.15.75.36,1.03.63l-.37.71Z"/>
  <path class="cls-1" d="M311.26,87.72c.08,0,.15.03.21.1l.59.64c-.33.41-.73.72-1.21.93-.48.22-1.06.33-1.73.33-.6,0-1.14-.1-1.62-.31-.48-.2-.89-.49-1.23-.86-.34-.37-.6-.8-.78-1.31-.18-.51-.27-1.06-.27-1.66s.1-1.16.3-1.67c.2-.5.49-.94.85-1.31.37-.37.8-.65,1.31-.85.51-.2,1.07-.3,1.69-.3s1.13.1,1.58.29c.45.19.84.45,1.16.76l-.5.7s-.07.08-.11.12c-.05.03-.11.05-.19.05s-.17-.03-.26-.1-.2-.14-.34-.22c-.14-.08-.31-.15-.52-.22-.21-.07-.48-.1-.8-.1-.38,0-.73.07-1.05.2-.32.13-.59.32-.82.57-.23.25-.41.55-.54.9-.13.35-.19.75-.19,1.19s.06.86.19,1.22c.13.35.3.65.52.89.22.24.48.43.78.56.3.13.62.19.96.19.2,0,.39-.01.56-.03.17-.02.32-.06.46-.11.14-.05.27-.11.4-.19.13-.08.25-.17.37-.28.04-.03.08-.06.12-.08.04-.02.09-.03.13-.03"/>
  <path class="cls-1" d="M323.2,85.59c0,.59-.1,1.14-.3,1.65-.2.5-.48.94-.83,1.31-.36.37-.79.66-1.29.86-.5.21-1.06.31-1.67.31s-1.17-.1-1.68-.31c-.51-.21-.94-.49-1.3-.86-.36-.37-.64-.81-.84-1.31-.2-.51-.3-1.06-.3-1.65s.1-1.14.3-1.65c.2-.5.48-.94.84-1.31.36-.37.79-.66,1.3-.86.5-.21,1.06-.31,1.68-.31s1.17.1,1.67.31c.5.21.93.5,1.29.86.36.37.64.81.83,1.31.2.51.3,1.06.3,1.65M321.66,85.59c0-.44-.06-.84-.18-1.2-.12-.35-.29-.65-.51-.9-.22-.25-.49-.44-.8-.57-.32-.13-.67-.2-1.07-.2s-.75.06-1.07.2c-.32.13-.59.32-.81.57-.22.25-.39.55-.51.9-.12.35-.18.75-.18,1.2s.06.84.18,1.2c.12.35.29.65.51.9s.49.43.81.56c.32.13.67.2,1.07.2s.75-.06,1.07-.2c.32-.13.58-.32.8-.56.22-.24.39-.54.51-.9s.18-.75.18-1.2"/>
  <path class="cls-1" d="M330.87,86.65c.05.13.11.26.16.39.05-.13.11-.27.16-.4.05-.13.11-.25.18-.38l2.4-4.48c.03-.06.06-.1.09-.13.03-.03.07-.06.11-.07.04-.02.08-.03.13-.03.05,0,.11,0,.17,0h1.14v8.09h-1.33v-5.23c0-.1,0-.2,0-.32,0-.11.01-.23.03-.35l-2.45,4.59c-.06.1-.13.19-.22.24-.09.06-.19.09-.31.09h-.21c-.12,0-.22-.03-.31-.09-.09-.06-.16-.14-.22-.24l-2.48-4.61c.01.12.03.24.03.36,0,.12,0,.23,0,.33v5.23h-1.33v-8.09h1.14c.07,0,.13,0,.17,0,.05,0,.09.01.13.03.04.01.08.04.11.07.03.03.07.08.1.13l2.42,4.5c.06.12.12.24.18.37"/>
  <path class="cls-1" d="M343.52,86.65c.05.13.11.26.16.39.05-.13.11-.27.16-.4.05-.13.11-.25.18-.38l2.4-4.48c.03-.06.06-.1.09-.13.03-.03.07-.06.11-.07.04-.02.08-.03.13-.03.05,0,.11,0,.17,0h1.14v8.09h-1.33v-5.23c0-.1,0-.2,0-.32,0-.11.01-.23.03-.35l-2.45,4.59c-.06.1-.13.19-.22.24-.09.06-.19.09-.31.09h-.21c-.12,0-.22-.03-.31-.09-.09-.06-.16-.14-.22-.24l-2.48-4.61c.01.12.03.24.03.36,0,.12,0,.23,0,.33v5.23h-1.33v-8.09h1.14c.07,0,.13,0,.17,0,.05,0,.09.01.13.03.04.01.08.04.11.07.03.03.07.08.1.13l2.42,4.5c.06.12.12.24.18.37"/>
  <path class="cls-1" d="M355.19,88.42c.29,0,.55-.05.78-.15.23-.1.42-.23.58-.41.16-.18.28-.39.36-.64.08-.25.13-.53.13-.84v-4.85h1.51v4.85c0,.48-.08.93-.23,1.33-.15.41-.38.76-.67,1.06-.29.3-.64.53-1.06.69-.42.17-.88.25-1.4.25s-.98-.08-1.4-.25c-.41-.17-.77-.4-1.05-.69-.29-.3-.51-.65-.67-1.06-.16-.41-.23-.85-.23-1.33v-4.85h1.51v4.84c0,.31.04.59.13.84.08.25.2.46.36.64.16.18.35.31.58.41.23.1.49.15.78.15"/>
  <path class="cls-1" d="M363.28,81.55s.09.02.12.03c.04.02.07.04.1.07.03.03.07.07.11.13l4.25,5.41c-.01-.13-.03-.26-.03-.38,0-.13,0-.24,0-.35v-4.92h1.33v8.09h-.78c-.12,0-.22-.02-.3-.06-.08-.04-.15-.1-.23-.2l-4.23-5.39c.01.12.02.24.03.35,0,.12,0,.23,0,.32v4.97h-1.33v-8.09h.79c.07,0,.12,0,.17,0"/>
  <rect class="cls-1" x="373.21" y="81.54" width="1.51" height="8.09"/>
  <polygon class="cls-1" points="384.48 81.54 384.48 82.77 382.05 82.77 382.05 89.63 380.54 89.63 380.54 82.77 378.1 82.77 378.1 81.54 384.48 81.54"/>
  <path class="cls-1" d="M391.28,86.49v3.15h-1.51v-3.15l-2.95-4.95h1.33c.13,0,.23.03.31.1.08.06.14.14.19.24l1.48,2.7c.09.16.16.31.22.46.06.14.12.29.17.42.05-.14.1-.28.16-.43.06-.14.14-.29.22-.45l1.47-2.7c.04-.08.1-.16.18-.23.08-.07.19-.11.31-.11h1.33l-2.94,4.95Z"/>
  <path class="cls-1" d="M70.8,65.16s0-.02-.01-.03c-.33-.76-.85-1.55-1.41-2.28-.25-.42-.55-.81-.91-1.17l-.65-.65c-.62-.66-1.08-1.08-1.08-1.08l-12.66-12.66c-2.41-2.41-6.33-2.41-8.74,0-1.4,1.4-1.99,3.3-1.76,5.13.16,1.32.75,2.6,1.76,3.61l12.66,12.66c5.66,5.66,5.66,14.86,0,20.52-5.66,5.66-14.86,5.66-20.52,0l-5.04-5.04c-2.41-2.41-6.33-2.41-8.74,0-.8.8-1.33,1.77-1.6,2.79-.54,2.06-.01,4.34,1.6,5.96l5.04,5.04c1.12,1.12,2.31,2.12,3.56,3,10.48,7.36,25.08,6.36,34.44-3,8.88-8.88,10.23-22.47,4.06-32.79"/>
  <path class="cls-2" d="M68.97,33.61l-12.66-12.66c-1.12-1.12-2.31-2.12-3.56-3-10.48-7.36-25.08-6.36-34.44,3-8.99,8.99-10.26,22.8-3.83,33.16,0,0,0,.01,0,.02.29.84,1.05,1.85,1.57,2.48.15.2.31.39.49.57.02.02.04.04.04.04l1.73,1.73h0s10.93,10.93,10.93,10.93l7.02,6.79c.6.75,1.25,1.48,1.95,2.18l5.04,5.04c1.61,1.61,3.9,2.15,5.96,1.6,1.02-.27,1.99-.8,2.79-1.6,2.41-2.41,2.41-6.33,0-8.74l-.71-.71h.14s-25.48-25.48-25.48-25.48c-4.52-5.69-4.15-14.01,1.11-19.27,5.66-5.66,14.86-5.66,20.52,0l12.66,12.66c1.01,1.01,2.29,1.6,3.61,1.76,1.82.23,3.73-.36,5.13-1.76,2.41-2.41,2.41-6.33,0-8.74"/>
  <path class="cls-2" d="M20.51,82.86h-8.64c-.76,0-1.37-.62-1.37-1.37v-8.64c0-.76.62-1.37,1.37-1.37h8.64c.76,0,1.37.62,1.37,1.37v8.64c0,.76-.62,1.37-1.37,1.37"/>
  <path class="cls-1" d="M42.4,45.73h-8.64c-.76,0-1.37-.62-1.37-1.37v-8.64c0-.76.62-1.37,1.37-1.37h8.64c.76,0,1.37.62,1.37,1.37v8.64c0,.76-.62,1.37-1.37,1.37"/>
  <path class="cls-1" d="M80.55,55.3h-8.64c-.76,0-1.37-.62-1.37-1.37v-8.64c0-.76.62-1.37,1.37-1.37h8.64c.76,0,1.37.62,1.37,1.37v8.64c0,.76-.62,1.37-1.37,1.37"/>
</svg>