<svg xmlns="http://www.w3.org/2000/svg" width="71.466" height="92.729" viewBox="0 0 71.466 92.729">
  <g id="Group_27" data-name="Group 27" transform="translate(-10.454 -13.09)">
    <path id="Path_88" data-name="Path 88" d="M70.8,65.16a.049.049,0,0,0-.01-.03,11.363,11.363,0,0,0-1.41-2.28,5.944,5.944,0,0,0-.91-1.17l-.65-.65c-.62-.66-1.08-1.08-1.08-1.08L54.08,47.29a6.18,6.18,0,0,0-8.74,8.74L58,68.69A14.51,14.51,0,0,1,37.48,89.21l-5.04-5.04a6.184,6.184,0,0,0-8.74,8.75l5.04,5.04A26.869,26.869,0,0,0,70.8,65.17" fill="#fff"/>
    <path id="Path_89" data-name="Path 89" d="M68.97,33.61,56.31,20.95A26.867,26.867,0,0,0,14.48,54.11v.02a9.42,9.42,0,0,0,1.57,2.48,5.269,5.269,0,0,0,.49.57l.04.04,1.73,1.73h0L29.24,69.88l7.02,6.79a26.454,26.454,0,0,0,1.95,2.18l5.04,5.04A6.184,6.184,0,0,0,52,75.15l-.71-.71h.14L25.95,48.96A14.508,14.508,0,0,1,47.58,29.69L60.24,42.35a6.18,6.18,0,1,0,8.74-8.74" fill="#f06935"/>
    <path id="Path_90" data-name="Path 90" d="M20.51,82.86H11.87a1.372,1.372,0,0,1-1.37-1.37V72.85a1.372,1.372,0,0,1,1.37-1.37h8.64a1.372,1.372,0,0,1,1.37,1.37v8.64a1.372,1.372,0,0,1-1.37,1.37" fill="#f06935"/>
    <path id="Path_91" data-name="Path 91" d="M42.4,45.73H33.76a1.372,1.372,0,0,1-1.37-1.37V35.72a1.372,1.372,0,0,1,1.37-1.37H42.4a1.372,1.372,0,0,1,1.37,1.37v8.64a1.372,1.372,0,0,1-1.37,1.37" fill="#fff"/>
    <path id="Path_92" data-name="Path 92" d="M80.55,55.3H71.91a1.372,1.372,0,0,1-1.37-1.37V45.29a1.372,1.372,0,0,1,1.37-1.37h8.64a1.372,1.372,0,0,1,1.37,1.37v8.64a1.372,1.372,0,0,1-1.37,1.37" fill="#fff"/>
  </g>
</svg>
